<svg version="1.1" xmlns="http://www.w3.org/2000/svg" xmlns:xlink="http://www.w3.org/1999/xlink" x="0px" y="0px" viewBox="0 0 268.8 195.7" style="enable-background:new 0 0 268.8 195.7;" xml:space="preserve">
	<style type="text/css">
	.st0{display:none;}
	.st1{display:inline;}
	.st2{fill:#C141BF;}
	.st3{fill:none;stroke:#1D1D1B;}
	.st4{fill:#FFFFFF;}
</style>
	<g id="Calque_1" class="st0">
		<g id="bXxz9H_1_" class="st1">

			<image style="overflow:visible;" width="298" height="417" id="bXxz9H_2_" xlink:href="CA4B1F78F6A8F98D.jpg" transform="matrix(1 0 0 1 15.7983 -39.5882)"></image>
		</g>
	</g>
	<g id="Calque_2">
		<g>
			<g>
				<path class="st2" d="M181,173.6L165.4,159l-17.6,14.6H181z M178.5,172.6h-27.9l14.8-12.3L178.5,172.6z" />
				<path class="st2" d="M188.9,44h-5.6v8.5h5.6V44z M187.9,51.5h-3.6V45h3.6V51.5z" />
				<path class="st2" d="M197.5,44h-5.6v8.5h5.6V44z M196.5,51.5h-3.6V45h3.6V51.5z" />
				<path class="st2" d="M153.4,21v8.1l10.3-8.1H153.4z M154.4,22h6.4l-6.4,5V22z" />
				<path class="st2" d="M154.4,12.5v8.1l10.3-8.1H154.4z M155.4,13.5h6.4l-6.4,5V13.5z" />
				<path class="st2" d="M175.5,20.6v-8.1h-10.3L175.5,20.6z M174.5,18.5l-6.4-5h6.4V18.5z" />
				<path class="st2" d="M175.5,29.1V21h-10.3L175.5,29.1z M174.5,27l-6.4-5h6.4V27z" />
				<path class="st2" d="M175,3.1h-10.3l10.3,8.1V3.1z M174,9.1l-6.4-5h6.4V9.1z" />
				<path class="st2" d="M154.4,3.1v8.1l10.3-8.1H154.4z M155.4,4.1h6.4l-6.4,5V4.1z" />
				<path class="st2" d="M165.1,5l-7.6,6.1h14.8L165.1,5z M165.1,6.3l4.5,3.8h-9.2L165.1,6.3z" />
				<path class="st2" d="M157.5,19.8h14.8l-7.1-6.1L157.5,19.8z M160.3,18.8l4.8-3.8l4.5,3.8H160.3z" />
				<path class="st2" d="M165.1,22l-7.6,6.1h14.8L165.1,22z M165.1,23.3l4.5,3.8h-9.2L165.1,23.3z" />
				<path class="st2" d="M253.7,20.8L177.1,2.6l0-2.6h-25.4v3.1L0.5,21.1L0,21.2v8.3v0.2V37h10.7v-6.5l57.7,1.9
				c0.3,0.9,1.1,2.9,4.1,3.5V38c-0.7,0.5-2.5,2.1-2,3.6c0.4,1.3,2.1,2.6,3.3,3.4c0.2,0.2,0.4,0.3,0.6,0.4c0.2,0.2,0.4,0.2,0.7,0.2
				c0.1,0,0.3,0,0.4-0.1c1.4-0.5,2.1-4.2,2.1-4.2c0.3-1.5-1.6-3.2-2.1-3.7L75,36.1c2.4-0.1,3-0.4,3.5-0.9c0.2-0.2,0.4-0.4,1.5-0.4
				c1,0,1.2,0.2,1.2,0.2c0,0,0,0.1,0,0.1c0.2,0.8,0.7,1,2.1,1c0.8,0,1.4-0.3,1.8-0.8c0.5-0.7,0.5-1.7,0.5-2.3l66.1,2.2l0.1,7.9
				l-5.4,5l2.9,9.2h2.8l0.9,46.5h-4v7h3.9l3.7,35.9l-8.1,9.1l-6.5,21.8l0,17l7.1-0.1l0.3-17.3h30.9l3,18.6h9.6l-3.6-4.4v-14.4
				l-6.5-22.6l-7.4-7.7l1.3-35.9h5v-7.6h-4.8V61.4l27.8-1.4v-3.2l0.8-18.6l-16.8-1.8l79.9,0.6v-4.3v-0.5V20.8H253.7z M177.5,30.2
				l-0.2-14.7l11.7,15l-9.7-0.2v0H177.5z M159.4,61.4h16.7v32.2l-5.8,12.1h-6.1l-4.9-18.4V61.4z M159.4,46.8l4.4,9.5h-4.4V46.8z
				 M159.4,44.4V31.2h16.8l-10.5,25h-0.8L159.4,44.4z M177.1,6l13.4,3.4v16.9l-13.2-15.5l-0.1,0.1L177.1,6z M152.6,1h23.4l0.4,29.2
				h-17.1h-6.8V1z M133.7,29.7l18-20.2v20.8L133.7,29.7z M1,22L151.6,4.1V8l-19.3,21.7l-2.9-0.1V8.9l-20,20l-3.9-0.1V10.5L83.8,28.1
				L81.9,28l22.2-17.1l-22.3,2.6V28l-1.2,0V13.5l-19,13.9l-6.4-0.2V16.7l-17.9,9.9l-4.7-0.1l-2.6-7.7l-9.5,6.9l0.3,0.5L17.3,26
				l10.4-6.4L7.8,22.3l7.1,3.6l-3.3-0.1L5,22l-2.5,3.8l0,0L1,27.9V22z M128.4,29.5l-17.6-0.6l17.6-17.6V29.5z M104.6,28.7l-19.2-0.6
				l19.2-15.5V28.7z M82.8,26.1V14.4l17.8-2.1L82.8,26.1z M79.6,28l-16.4-0.5l16.4-12V28z M54.2,27.1l-14.9-0.5l14.9-8.2V27.1z
				 M31.6,26.4l-10-0.3l8-5.8L31.6,26.4z M16.2,25.5l-5.1-2.6l11.9-1.6L16.2,25.5z M9.5,25.7l-5.7-0.2l1.5-2.3L9.5,25.7z M76.5,41.2
				c-0.3,1.4-1,3.3-1.6,3.4c-0.2-0.1-0.4-0.3-0.6-0.4c-1.1-0.8-2.7-1.9-3-2.9c-0.2-0.8,1.2-2.1,1.9-2.6l0.2-0.2V36
				c0.2,0,0.3,0,0.5,0l0.5,2.2l0.1,0.1C75.3,38.9,76.7,40.4,76.5,41.2z M84.4,34.7c-0.2,0.3-0.6,0.4-1,0.4c-0.9,0-1.1-0.1-1.1-0.1
				c0,0,0-0.1,0-0.1c-0.2-0.8-0.7-1.1-2.2-1.1c-1.4,0-1.8,0.3-2.2,0.7c-0.3,0.3-0.7,0.7-3.5,0.7c-3.5,0-4.6-1.7-4.9-2.6L84.6,33
				C84.7,33.5,84.7,34.2,84.4,34.7z M10.2,29.5l-0.5,0V36H1v-6.3l2.1-3.2l148.5,4.7v0h0l0.1,2.9L10.2,29.5z M150.1,56.3l-2.4-7.9
				l4.3-4l0.2,11.9H150.1z M174.5,147l7.5,7.8l6.4,22.2v14.7l2.5,3h-6.6l-3-18.6h-32.7l-0.3,17.3l-5.1,0v-15.7l6.4-21.5l8.2-9.2
				l-3.7-36.2h21.9L174.5,147z M180.8,104.1v5.6h-3.9h-24.1H150v-5h4l-1.3-69.5l0,0l0-0.6l-0.1-3.4h5.7v56.1l5.1,19.4h7.5l5.1-10.8
				v8.2H180.8z M203.9,59.1l-27.3,1.4h-17.2v-3.2h4.8h2.1h37.5V59.1z M203.9,56.3h-37.1l10.5-25h0.2h0.8v5l26.3,2.8L203.9,56.3z
				 M267.8,36l-88.5-0.7v-4l88.5,1.9V36z M193.6,30.6V14.3L210,30.9L193.6,30.6z M214.8,31V17.9l16,13.5L214.8,31z M236.6,31.5v-8.4
				l13.1,8.7L236.6,31.5z M257.6,32l-3.2-0.1v-8.6h3.2V32z M258.6,32v-9.7h-5.2v9.6l-1.7,0l-16-10.6v10.3l-3.2-0.1l-18.6-15.7V31
				l-2.4-0.1l-18.9-19.1v18.7l-2.3,0L177.4,14l-0.1,0.1l0-1.9L191.5,29V8.6l-14.4-3.7l0-1.3l76.4,18.2l14.3,0v10.4L258.6,32z" />
				<path class="st2" d="M259.6,22.3v9h7.7v-9H259.6z M266.3,30.2h-5.7v-7h5.7V30.2z" />
				<path class="st2" d="M252,30.6v-8.3l-15.2-2.8L252,30.6z M251,28.7l-10.1-7.3l10.1,1.8V28.7z" />
				<path class="st2" d="M233.9,30.7V18.9L214.3,14L233.9,30.7z M232.9,28.6L218.2,16l14.8,3.7V28.6z" />
				<path class="st2" d="M212.4,30.9v-17l-20-4.7L212.4,30.9z M211.4,28.4L195.3,11l16.1,3.8V28.4z" />
				<path class="st2" d="M130.5,8.3V29L151,5.7L130.5,8.3z M131.5,9.2L148.5,7l-16.9,19.3V9.2z" />
				<path class="st2" d="M107.5,11.2v17.1l20.2-19.9L107.5,11.2z M108.5,12l16.3-2.2l-16.3,16.1V12z" />
				<path class="st2" d="M57.7,16.1v10.8l20.8-13.2L57.7,16.1z M58.7,17l15.6-1.8l-15.6,9.9V17z" />
				<path class="st2" d="M53.4,16.6l-21.3,3.2l2.2,6.1L53.4,16.6z M47.1,18.6l-12.2,6l-1.4-3.9L47.1,18.6z" />
			</g>
			<g>
				<path class="st3" d="M181,173.6L165.4,159l-17.6,14.6H181z M178.5,172.6h-27.9l14.8-12.3L178.5,172.6z" />
				<path class="st3" d="M188.9,44h-5.6v8.5h5.6V44z M187.9,51.5h-3.6V45h3.6V51.5z" />
				<path class="st3" d="M197.5,44h-5.6v8.5h5.6V44z M196.5,51.5h-3.6V45h3.6V51.5z" />
				<path class="st3" d="M153.4,21v8.1l10.3-8.1H153.4z M154.4,22h6.4l-6.4,5V22z" />
				<path class="st3" d="M154.4,12.5v8.1l10.3-8.1H154.4z M155.4,13.5h6.4l-6.4,5V13.5z" />
				<path class="st3" d="M175.5,20.6v-8.1h-10.3L175.5,20.6z M174.5,18.5l-6.4-5h6.4V18.5z" />
				<path class="st3" d="M175.5,29.1V21h-10.3L175.5,29.1z M174.5,27l-6.4-5h6.4V27z" />
				<path class="st3" d="M175,3.1h-10.3l10.3,8.1V3.1z M174,9.1l-6.4-5h6.4V9.1z" />
				<path class="st3" d="M154.4,3.1v8.1l10.3-8.1H154.4z M155.4,4.1h6.4l-6.4,5V4.1z" />
				<path class="st3" d="M165.1,5l-7.6,6.1h14.8L165.1,5z M165.1,6.3l4.5,3.8h-9.2L165.1,6.3z" />
				<path class="st3" d="M157.5,19.8h14.8l-7.1-6.1L157.5,19.8z M160.3,18.8l4.8-3.8l4.5,3.8H160.3z" />
				<path class="st3" d="M165.1,22l-7.6,6.1h14.8L165.1,22z M165.1,23.3l4.5,3.8h-9.2L165.1,23.3z" />
				<path class="st3" d="M253.7,20.8L177.1,2.6l0-2.6h-25.4v3.1L0.5,21.1L0,21.2v8.3v0.2V37h10.7v-6.5l57.7,1.9
				c0.3,0.9,1.1,2.9,4.1,3.5V38c-0.7,0.5-2.5,2.1-2,3.6c0.4,1.3,2.1,2.6,3.3,3.4c0.2,0.2,0.4,0.3,0.6,0.4c0.2,0.2,0.4,0.2,0.7,0.2
				c0.1,0,0.3,0,0.4-0.1c1.4-0.5,2.1-4.2,2.1-4.2c0.3-1.5-1.6-3.2-2.1-3.7L75,36.1c2.4-0.1,3-0.4,3.5-0.9c0.2-0.2,0.4-0.4,1.5-0.4
				c1,0,1.2,0.2,1.2,0.2c0,0,0,0.1,0,0.1c0.2,0.8,0.7,1,2.1,1c0.8,0,1.4-0.3,1.8-0.8c0.5-0.7,0.5-1.7,0.5-2.3l66.1,2.2l0.1,7.9
				l-5.4,5l2.9,9.2h2.8l0.9,46.5h-4v7h3.9l3.7,35.9l-8.1,9.1l-6.5,21.8l0,17l7.1-0.1l0.3-17.3h30.9l3,18.6h9.6l-3.6-4.4v-14.4
				l-6.5-22.6l-7.4-7.7l1.3-35.9h5v-7.6h-4.8V61.4l27.8-1.4v-3.2l0.8-18.6l-16.8-1.8l79.9,0.6v-4.3v-0.5V20.8H253.7z M177.5,30.2
				l-0.2-14.7l11.7,15l-9.7-0.2v0H177.5z M159.4,61.4h16.7v32.2l-5.8,12.1h-6.1l-4.9-18.4V61.4z M159.4,46.8l4.4,9.5h-4.4V46.8z
				 M159.4,44.4V31.2h16.8l-10.5,25h-0.8L159.4,44.4z M177.1,6l13.4,3.4v16.9l-13.2-15.5l-0.1,0.1L177.1,6z M152.6,1h23.4l0.4,29.2
				h-17.1h-6.8V1z M133.7,29.7l18-20.2v20.8L133.7,29.7z M1,22L151.6,4.1V8l-19.3,21.7l-2.9-0.1V8.9l-20,20l-3.9-0.1V10.5L83.8,28.1
				L81.9,28l22.2-17.1l-22.3,2.6V28l-1.2,0V13.5l-19,13.9l-6.4-0.2V16.7l-17.9,9.9l-4.7-0.1l-2.6-7.7l-9.5,6.9l0.3,0.5L17.3,26
				l10.4-6.4L7.8,22.3l7.1,3.6l-3.3-0.1L5,22l-2.5,3.8l0,0L1,27.9V22z M128.4,29.5l-17.6-0.6l17.6-17.6V29.5z M104.6,28.7l-19.2-0.6
				l19.2-15.5V28.7z M82.8,26.1V14.4l17.8-2.1L82.8,26.1z M79.6,28l-16.4-0.5l16.4-12V28z M54.2,27.1l-14.9-0.5l14.9-8.2V27.1z
				 M31.6,26.4l-10-0.3l8-5.8L31.6,26.4z M16.2,25.5l-5.1-2.6l11.9-1.6L16.2,25.5z M9.5,25.7l-5.7-0.2l1.5-2.3L9.5,25.7z M76.5,41.2
				c-0.3,1.4-1,3.3-1.6,3.4c-0.2-0.1-0.4-0.3-0.6-0.4c-1.1-0.8-2.7-1.9-3-2.9c-0.2-0.8,1.2-2.1,1.9-2.6l0.2-0.2V36
				c0.2,0,0.3,0,0.5,0l0.5,2.2l0.1,0.1C75.3,38.9,76.7,40.4,76.5,41.2z M84.4,34.7c-0.2,0.3-0.6,0.4-1,0.4c-0.9,0-1.1-0.1-1.1-0.1
				c0,0,0-0.1,0-0.1c-0.2-0.8-0.7-1.1-2.2-1.1c-1.4,0-1.8,0.3-2.2,0.7c-0.3,0.3-0.7,0.7-3.5,0.7c-3.5,0-4.6-1.7-4.9-2.6L84.6,33
				C84.7,33.5,84.7,34.2,84.4,34.7z M10.2,29.5l-0.5,0V36H1v-6.3l2.1-3.2l148.5,4.7v0h0l0.1,2.9L10.2,29.5z M150.1,56.3l-2.4-7.9
				l4.3-4l0.2,11.9H150.1z M174.5,147l7.5,7.8l6.4,22.2v14.7l2.5,3h-6.6l-3-18.6h-32.7l-0.3,17.3l-5.1,0v-15.7l6.4-21.5l8.2-9.2
				l-3.7-36.2h21.9L174.5,147z M180.8,104.1v5.6h-3.9h-24.1H150v-5h4l-1.3-69.5l0,0l0-0.6l-0.1-3.4h5.7v56.1l5.1,19.4h7.5l5.1-10.8
				v8.2H180.8z M203.9,59.1l-27.3,1.4h-17.2v-3.2h4.8h2.1h37.5V59.1z M203.9,56.3h-37.1l10.5-25h0.2h0.8v5l26.3,2.8L203.9,56.3z
				 M267.8,36l-88.5-0.7v-4l88.5,1.9V36z M193.6,30.6V14.3L210,30.9L193.6,30.6z M214.8,31V17.9l16,13.5L214.8,31z M236.6,31.5v-8.4
				l13.1,8.7L236.6,31.5z M257.6,32l-3.2-0.1v-8.6h3.2V32z M258.6,32v-9.7h-5.2v9.6l-1.7,0l-16-10.6v10.3l-3.2-0.1l-18.6-15.7V31
				l-2.4-0.1l-18.9-19.1v18.7l-2.3,0L177.4,14l-0.1,0.1l0-1.9L191.5,29V8.6l-14.4-3.7l0-1.3l76.4,18.2l14.3,0v10.4L258.6,32z" />
				<path class="st3" d="M259.6,22.3v9h7.7v-9H259.6z M266.3,30.2h-5.7v-7h5.7V30.2z" />
				<path class="st3" d="M252,30.6v-8.3l-15.2-2.8L252,30.6z M251,28.7l-10.1-7.3l10.1,1.8V28.7z" />
				<path class="st3" d="M233.9,30.7V18.9L214.3,14L233.9,30.7z M232.9,28.6L218.2,16l14.8,3.7V28.6z" />
				<path class="st3" d="M212.4,30.9v-17l-20-4.7L212.4,30.9z M211.4,28.4L195.3,11l16.1,3.8V28.4z" />
				<path class="st3" d="M130.5,8.3V29L151,5.7L130.5,8.3z M131.5,9.2L148.5,7l-16.9,19.3V9.2z" />
				<path class="st3" d="M107.5,11.2v17.1l20.2-19.9L107.5,11.2z M108.5,12l16.3-2.2l-16.3,16.1V12z" />
				<path class="st3" d="M57.7,16.1v10.8l20.8-13.2L57.7,16.1z M58.7,17l15.6-1.8l-15.6,9.9V17z" />
				<path class="st3" d="M53.4,16.6l-21.3,3.2l2.2,6.1L53.4,16.6z M47.1,18.6l-12.2,6l-1.4-3.9L47.1,18.6z" />
			</g>
			<g>

				<image style="overflow:visible;" width="1450" height="1146" xlink:href="CA4B1F78F6A8F98F.png" transform="matrix(0.24 0 0 0.24 -39.494 -39.6782)"></image>
			</g>
			<g>
				<path class="st4" d="M181,173.6L165.4,159l-17.6,14.6H181z M178.5,172.6h-27.9l14.8-12.3L178.5,172.6z" />
				<path class="st4" d="M188.9,44h-5.6v8.5h5.6V44z M187.9,51.5h-3.6V45h3.6V51.5z" />
				<path class="st4" d="M197.5,44h-5.6v8.5h5.6V44z M196.5,51.5h-3.6V45h3.6V51.5z" />
				<path class="st4" d="M153.4,21v8.1l10.3-8.1H153.4z M154.4,22h6.4l-6.4,5V22z" />
				<path class="st4" d="M154.4,12.5v8.1l10.3-8.1H154.4z M155.4,13.5h6.4l-6.4,5V13.5z" />
				<path class="st4" d="M175.5,20.6v-8.1h-10.3L175.5,20.6z M174.5,18.5l-6.4-5h6.4V18.5z" />
				<path class="st4" d="M175.5,29.1V21h-10.3L175.5,29.1z M174.5,27l-6.4-5h6.4V27z" />
				<path class="st4" d="M175,3.1h-10.3l10.3,8.1V3.1z M174,9.1l-6.4-5h6.4V9.1z" />
				<path class="st4" d="M154.4,3.1v8.1l10.3-8.1H154.4z M155.4,4.1h6.4l-6.4,5V4.1z" />
				<path class="st4" d="M165.1,5l-7.6,6.1h14.8L165.1,5z M165.1,6.3l4.5,3.8h-9.2L165.1,6.3z" />
				<path class="st4" d="M157.5,19.8h14.8l-7.1-6.1L157.5,19.8z M160.3,18.8l4.8-3.8l4.5,3.8H160.3z" />
				<path class="st4" d="M165.1,22l-7.6,6.1h14.8L165.1,22z M165.1,23.3l4.5,3.8h-9.2L165.1,23.3z" />
				<path class="st4" d="M253.7,20.8L177.1,2.6l0-2.6h-25.4v3.1L0.5,21.1L0,21.2v8.3v0.2V37h10.7v-6.5l57.7,1.9
				c0.3,0.9,1.1,2.9,4.1,3.5V38c-0.7,0.5-2.5,2.1-2,3.6c0.4,1.3,2.1,2.6,3.3,3.4c0.2,0.2,0.4,0.3,0.6,0.4c0.2,0.2,0.4,0.2,0.7,0.2
				c0.1,0,0.3,0,0.4-0.1c1.4-0.5,2.1-4.2,2.1-4.2c0.3-1.5-1.6-3.2-2.1-3.7L75,36.1c2.4-0.1,3-0.4,3.5-0.9c0.2-0.2,0.4-0.4,1.5-0.4
				c1,0,1.2,0.2,1.2,0.2c0,0,0,0.1,0,0.1c0.2,0.8,0.7,1,2.1,1c0.8,0,1.4-0.3,1.8-0.8c0.5-0.7,0.5-1.7,0.5-2.3l66.1,2.2l0.1,7.9
				l-5.4,5l2.9,9.2h2.8l0.9,46.5h-4v7h3.9l3.7,35.9l-8.1,9.1l-6.5,21.8l0,17l7.1-0.1l0.3-17.3h30.9l3,18.6h9.6l-3.6-4.4v-14.4
				l-6.5-22.6l-7.4-7.7l1.3-35.9h5v-7.6h-4.8V61.4l27.8-1.4v-3.2l0.8-18.6l-16.8-1.8l79.9,0.6v-4.3v-0.5V20.8H253.7z M177.5,30.2
				l-0.2-14.7l11.7,15l-9.7-0.2v0H177.5z M159.4,61.4h16.7v32.2l-5.8,12.1h-6.1l-4.9-18.4V61.4z M159.4,46.8l4.4,9.5h-4.4V46.8z
				 M159.4,44.4V31.2h16.8l-10.5,25h-0.8L159.4,44.4z M177.1,6l13.4,3.4v16.9l-13.2-15.5l-0.1,0.1L177.1,6z M152.6,1h23.4l0.4,29.2
				h-17.1h-6.8V1z M133.7,29.7l18-20.2v20.8L133.7,29.7z M1,22L151.6,4.1V8l-19.3,21.7l-2.9-0.1V8.9l-20,20l-3.9-0.1V10.5L83.8,28.1
				L81.9,28l22.2-17.1l-22.3,2.6V28l-1.2,0V13.5l-19,13.9l-6.4-0.2V16.7l-17.9,9.9l-4.7-0.1l-2.6-7.7l-9.5,6.9l0.3,0.5L17.3,26
				l10.4-6.4L7.8,22.3l7.1,3.6l-3.3-0.1L5,22l-2.5,3.8l0,0L1,27.9V22z M128.4,29.5l-17.6-0.6l17.6-17.6V29.5z M104.6,28.7l-19.2-0.6
				l19.2-15.5V28.7z M82.8,26.1V14.4l17.8-2.1L82.8,26.1z M79.6,28l-16.4-0.5l16.4-12V28z M54.2,27.1l-14.9-0.5l14.9-8.2V27.1z
				 M31.6,26.4l-10-0.3l8-5.8L31.6,26.4z M16.2,25.5l-5.1-2.6l11.9-1.6L16.2,25.5z M9.5,25.7l-5.7-0.2l1.5-2.3L9.5,25.7z M76.5,41.2
				c-0.3,1.4-1,3.3-1.6,3.4c-0.2-0.1-0.4-0.3-0.6-0.4c-1.1-0.8-2.7-1.9-3-2.9c-0.2-0.8,1.2-2.1,1.9-2.6l0.2-0.2V36
				c0.2,0,0.3,0,0.5,0l0.5,2.2l0.1,0.1C75.3,38.9,76.7,40.4,76.5,41.2z M84.4,34.7c-0.2,0.3-0.6,0.4-1,0.4c-0.9,0-1.1-0.1-1.1-0.1
				c0,0,0-0.1,0-0.1c-0.2-0.8-0.7-1.1-2.2-1.1c-1.4,0-1.8,0.3-2.2,0.7c-0.3,0.3-0.7,0.7-3.5,0.7c-3.5,0-4.6-1.7-4.9-2.6L84.6,33
				C84.7,33.5,84.7,34.2,84.4,34.7z M10.2,29.5l-0.5,0V36H1v-6.3l2.1-3.2l148.5,4.7v0h0l0.1,2.9L10.2,29.5z M150.1,56.3l-2.4-7.9
				l4.3-4l0.2,11.9H150.1z M174.5,147l7.5,7.8l6.4,22.2v14.7l2.5,3h-6.6l-3-18.6h-32.7l-0.3,17.3l-5.1,0v-15.7l6.4-21.5l8.2-9.2
				l-3.7-36.2h21.9L174.5,147z M180.8,104.1v5.6h-3.9h-24.1H150v-5h4l-1.3-69.5l0,0l0-0.6l-0.1-3.4h5.7v56.1l5.1,19.4h7.5l5.1-10.8
				v8.2H180.8z M203.9,59.1l-27.3,1.4h-17.2v-3.2h4.8h2.1h37.5V59.1z M203.9,56.3h-37.1l10.5-25h0.2h0.8v5l26.3,2.8L203.9,56.3z
				 M267.8,36l-88.5-0.7v-4l88.5,1.9V36z M193.6,30.6V14.3L210,30.9L193.6,30.6z M214.8,31V17.9l16,13.5L214.8,31z M236.6,31.5v-8.4
				l13.1,8.7L236.6,31.5z M257.6,32l-3.2-0.1v-8.6h3.2V32z M258.6,32v-9.7h-5.2v9.6l-1.7,0l-16-10.6v10.3l-3.2-0.1l-18.6-15.7V31
				l-2.4-0.1l-18.9-19.1v18.7l-2.3,0L177.4,14l-0.1,0.1l0-1.9L191.5,29V8.6l-14.4-3.7l0-1.3l76.4,18.2l14.3,0v10.4L258.6,32z" />
				<path class="st4" d="M259.6,22.3v9h7.7v-9H259.6z M266.3,30.2h-5.7v-7h5.7V30.2z" />
				<path class="st4" d="M252,30.6v-8.3l-15.2-2.8L252,30.6z M251,28.7l-10.1-7.3l10.1,1.8V28.7z" />
				<path class="st4" d="M233.9,30.7V18.9L214.3,14L233.9,30.7z M232.9,28.6L218.2,16l14.8,3.7V28.6z" />
				<path class="st4" d="M212.4,30.9v-17l-20-4.7L212.4,30.9z M211.4,28.4L195.3,11l16.1,3.8V28.4z" />
				<path class="st4" d="M130.5,8.3V29L151,5.7L130.5,8.3z M131.5,9.2L148.5,7l-16.9,19.3V9.2z" />
				<path class="st4" d="M107.5,11.2v17.1l20.2-19.9L107.5,11.2z M108.5,12l16.3-2.2l-16.3,16.1V12z" />
				<path class="st4" d="M57.7,16.1v10.8l20.8-13.2L57.7,16.1z M58.7,17l15.6-1.8l-15.6,9.9V17z" />
				<path class="st4" d="M53.4,16.6l-21.3,3.2l2.2,6.1L53.4,16.6z M47.1,18.6l-12.2,6l-1.4-3.9L47.1,18.6z" />
			</g>
		</g>
	</g>
</svg>